<?xml version="1.0" encoding="utf-8"?>
<!-- Generator: Adobe Illustrator 27.0.0, SVG Export Plug-In . SVG Version: 6.00 Build 0)  -->
<svg version="1.1" id="Layer_1" xmlns="http://www.w3.org/2000/svg" xmlns:xlink="http://www.w3.org/1999/xlink" x="0px" y="0px"
	 viewBox="0 0 303.1 271.1" style="enable-background:new 0 0 303.1 271.1;" xml:space="preserve">
<style type="text/css">
	.st0{fill:#FEFBEE;}
</style>
<g>
	<path class="st0" d="M106.4,270.1C81,249.3-4.3,136.3,1.3,2.3c80.3,79.9,225,190.4,288.3,225.6l0.8,0.5l0.5-0.8
		c2.1-3.6,11.3-25.6,9.6-53.6c5,22.6-2.7,50.6-4.6,55.6c-44.2-4.2-101.7-40-142.3-69.5C98.8,120.3,52.5,76.5,27.5,48.9l-2.1-2.4
		l0.4,3.2c7,53.8,36.3,116.4,87.1,186.1c1.1,1.6,2.1,2.9,2.9,4l0.3,0.4l0.4,0.1c5.5,0.7,13.5,1,23.9,1c43.5,0,118.8-5.8,143.3-7.8
		C233.7,249.9,144.7,268.6,106.4,270.1z"/>
	<path d="M2.2,4.6C83.7,85.3,221.3,190.2,286,227.1c-42.4-8-94.3-40.7-131.8-67.9C99.4,119.5,53.2,75.8,28.2,48.2l-4.3-4.7l0.8,6.3
		c7,54,36.4,116.7,87.3,186.5c1.1,1.6,2.1,2.9,2.9,4l0.5,0.7l0.9,0.1c5.5,0.7,13.6,1,24,1c39.3,0,104.4-4.7,134.8-7.1
		c-50.8,15.8-132,32.5-168.4,34.1c-12.5-10.4-40.3-43.8-64-91.5C22.8,137.5-0.2,75.3,2.2,4.6 M301.1,192.6
		c-0.3,16-4.3,31.1-5.9,35.8c-1.1-0.1-2.3-0.3-3.5-0.4C293.5,225.1,299.2,211.4,301.1,192.6 M0.4,0C-6.3,135.6,80,250.1,106.1,271.1
		c40-1.5,137.8-22.4,185.5-39.5c0,0-98.3,8.5-151.2,8.5c-9.8,0-18-0.3-23.8-1c-12.9-18-78.6-103.6-89.9-189.6
		c56.3,62.3,190.4,174.1,269.8,181c0.8-1.6,13.1-40.5,1.9-66.1c4.7,31.4-5.7,58.1-8.4,62.6C224.6,190.6,79.8,79.4,0.4,0L0.4,0z
		 M296.5,230.5C296.5,230.5,296.5,230.5,296.5,230.5L296.5,230.5C296.5,230.5,296.5,230.5,296.5,230.5L296.5,230.5z"/>
</g>
</svg>
