<?xml version="1.0" encoding="UTF-8"?>
<svg id="Layer_2" data-name="Layer 2" xmlns="http://www.w3.org/2000/svg" xmlns:xlink="http://www.w3.org/1999/xlink" viewBox="0 0 1000 1000">
  <defs>
    <style>
      .cls-1 {
        fill: #fefbee;
      }

      .cls-2 {
        clip-path: url(#clippath);
      }

      .cls-3 {
        fill: none;
      }
    </style>
    <clipPath id="clippath">
      <rect class="cls-3" width="1000" height="1000"/>
    </clipPath>
  </defs>
  <g id="Layer_1-2" data-name="Layer 1">
    <g class="cls-2">
      <g>
        <g>
          <g>
            <path class="cls-1" d="M801.43,754.62c9.64,28.01-5.24,58.53-33.25,68.17-28.01,9.64-28.28,1.33-70.35,2.91,30.83-10.15,43.34,1.03,68.7-7.7,25.36-8.73,38.84-36.37,30.11-61.74-8.73-25.36-36.37-38.84-61.74-30.11-10.26,3.53-17.91,5.58-64.97,33.78-22.24,13.32-67.44,27.87-108.17,24.49-15.99-1.33-31.28-5.41-44.23-13.42,69.58,8.75,94.16,3.85,127.51-7.63,23.28-8.02,57.18-31.31,88.23-42,28.01-9.64,58.53,5.24,68.17,33.25Z"/>
            <path class="cls-1" d="M542.88,801.4c39.49,.23,77.83-1.03,121.29-18.71,16.27-6.62,30.78-16.48,34.69-19.52,4.95-3.85,16.82-13.22,24.13-17.13,19.56-5.5,27.72-4.06,27.72-4.06,0,0-19.05,9.79-31.97,17.59-12.92,7.79-19.39,15.13-39.37,24.55-40.34,19.01-92.92,30.63-92.92,30.63,0,0-36.27-8.99-43.56-13.35Z"/>
            <path class="cls-1" d="M668.3,801c12.14-5.81,37.1-17.48,44.11-19.8,5.77-.71,11.5-.44,17.06,.14-5.26,4.17-6.33,4.86-12.47,8.71-8.67,2.94-35.01,10.31-48.69,10.94Z"/>
            <path class="cls-1" d="M583.34,830.71s23.91-.7,41.6-3.67,50.31-14.14,59-17.48,22.57-7.24,37.27-8.87,41.27-4.59,41.27-4.59c0,0-12.46,7.32-16.91,8.94-4.45,1.62-37.5,3.95-56.56,10.33-62.65,20.99-64.41,26.18-84.23,22.66-7.06-1.25-21.44-7.32-21.44-7.32Z"/>
            <path class="cls-1" d="M767.17,775.88c.02-.18-.16-4.53-2.22-6.7,1.62,2.97,1.54,6.03,1.44,6.58-7.88-1.26-26.44-7.12-37.3-12.19,4.28,13.83,17.09,22.15,20.48,23.31,3.95-1.61,12.99-7.27,17.15-10.72,0,0-13.41,6.23-17.26,7.13-1.95-1.34-11.66-7.51-15.92-15.72,7.92,4.19,25.43,10.5,33.63,8.3Z"/>
            <path class="cls-1" d="M772.55,772.89c1.47-.78,9.78-12.26,13.9-25.06,1.76,9.62-1.33,19.26-3.11,23.76-3.74,1.04-5.8,.51-10.46,1.2,2.67,.89,5.47,1.5,12.01,.36,2.62-3.31,7.5-20.15,1.48-32.14-2.72,8.2-8.79,21.23-13.5,31.2-.55-.51-1.7-.65-3.17-5.04,.7,3.64,2.25,5.37,2.85,5.72Z"/>
          </g>
          <g>
            <path class="cls-1" d="M653.9,880.06c4.74-4.35,11.77-9.28,17.32-12.79l-3.9,8.54c-2.43,1.58-6.96,4.24-9.81,6.72l-2.27,4.82,8.84-5.11c-.95,1.45-1.67,3.25-2.56,4.79-2.9,1.72-6.67,3.67-8.37,4.8l-2.54,5.37,11.98-6.22-1.85,4.2c-8.29,4.99-15.26,9.85-19.75,14.48,3.03-8.58,7.49-18.59,12.92-29.59Z"/>
            <path class="cls-1" d="M697.6,858.33c-3-5.31-15.05,4.81-15.05,4.81-3.91,8.02-7.5,16.65-10.76,25.92l5.45-2.84c1.07-2.76,2.54-6.7,4.24-11.34,4.12,2.39,7.81,4.22,10.14,4.27,1.7-.75,3.07-1.38,4.38-2-2.49-.72-5.16-1.93-7.86-3.22,0,0,12.45-10.29,9.45-15.59Zm-10.39,11.44c-1.32,.91-2.69,1.25-4.37,1.38,0,0,2.07-4.29,2.94-5.15s4.84-3.5,6.18-2.88c1.34,.62-3.43,5.74-4.75,6.65Z"/>
            <path class="cls-1" d="M724.64,843.06c-.97,1.64-1.96,3.67-3.11,6.31-1.95,.82-3.81,1.69-5.62,2.61h0c-.46,.71-2.5,10.78-2.78,17.54-1.21,.52-2.52,1.09-3.9,1.69-.39-5.63,1.02-13.53,1.93-16.59,0,0,0,0-.01,0-2.46,1.49-4.86,3.12-7.27,4.95,.68-1.93,1.41-4.95,2.26-6.23,7.87-6.47,14.53-8.69,18.5-10.29Z"/>
            <path class="cls-1" d="M727.4,863.53c4.65-1.91,9.51-3.87,14.66-5.89,1.87-3.97,3.24-6,3.55-6.84-6.49,2.93-9.48,3.98-11.99,5.16,1.61-7.45,3.26-13.93,6.4-19.23-1.27,.64-3.31,1.95-6.94,4.65-1.77,5.22-3.81,13.3-5.68,22.15Z"/>
            <path class="cls-1" d="M751.82,853.84c.13-4.18,3.76-18.25,5.62-20.15l5.87-5.43c-2.43,7.07-5.52,14.71-7.17,23.94-1.45,.55-2.89,1.1-4.32,1.65Z"/>
            <path class="cls-1" d="M766.46,848.33c1.32-7.01,3.84-14.41,7.65-22.13,2.06,3.39,3.94,5.86,5.65,8.27,0,0,3.29-6.96,4.95-9.54,1.65-1.75,3.67-3.3,5.89-4.73-3.33,7.31-6.73,15.09-8.96,22.61-2.63-2.15-5.01-4.31-6.96-6.76-1.38,3.34-2.31,7.19-3.23,10.47-1.62,.59-3.29,1.2-4.99,1.82Z"/>
            <path class="cls-1" d="M788.75,840.29l9.09-20.81c6.03-4.16,13.34-6.72,17.96-8.66-3.01,2.69-5.08,4.7-7.75,7.32-2.84,1.29-4.68,2.14-6.79,3.62l-2.04,4.76c3.3-1.77,5.33-2.87,9.5-4.64l-3.14,4.43c-2.61,1.16-5.38,2.54-7.68,3.87l-1.92,4.28s5.57-2.05,6.55-2.7,4.83-3.98,4.83-3.98c-.93,1.68-2.77,4.5-5.22,8.08-3.44,1.09-8.05,2.62-13.4,4.42Z"/>
            <path class="cls-1" d="M583.21,934.73l1.76-19.9c16.95-35.56,34.4-60.29,52.34-74.73-9.13,20.99-16.4,45.58-22.21,72.98,6.25-9.48,18.89-31.05,22.75-36.12,3.86-5.07,11.06-13.18,11.06-13.18-2.56,6.45-4.98,13.2-8.54,18.96-13.49,20.45-25.86,42.3-35.73,64.6-3.49-12.87,2.07-37.83,13.59-70.78-10.11,9.59-21.86,29.4-35.03,58.18Z"/>
          </g>
        </g>
        <g>
          <path class="cls-1" d="M473.82,116.66c9.64,28.01-5.24,58.53-33.25,68.17-28.01,9.64-28.28,1.33-70.35,2.91,30.83-10.15,43.34,1.03,68.7-7.7,25.36-8.73,38.84-36.37,30.11-61.74-8.73-25.36-36.37-38.84-61.74-30.11-10.26,3.53-17.91,5.58-64.97,33.78-22.24,13.32-67.44,27.87-108.17,24.49-15.99-1.33-31.28-5.41-44.23-13.42,69.58,8.75,94.16,3.85,127.51-7.63,23.28-8.02,57.18-31.31,88.23-42,28.01-9.64,58.53,5.24,68.17,33.25Z"/>
          <path class="cls-1" d="M215.27,163.43c39.49,.23,77.83-1.03,121.29-18.71,16.27-6.62,30.78-16.48,34.69-19.52,4.95-3.85,16.82-13.22,24.13-17.13,19.56-5.5,27.72-4.06,27.72-4.06,0,0-19.05,9.79-31.97,17.59s-19.39,15.13-39.37,24.55c-40.34,19.01-92.92,30.63-92.92,30.63,0,0-36.27-8.99-43.56-13.35Z"/>
          <path class="cls-1" d="M340.69,163.04c12.14-5.81,37.1-17.48,44.11-19.8,5.77-.71,11.5-.44,17.06,.14-5.26,4.17-6.33,4.86-12.47,8.71-8.67,2.94-35.01,10.31-48.69,10.94Z"/>
          <path class="cls-1" d="M255.72,192.75s23.91-.7,41.6-3.67c17.7-2.96,50.31-14.14,59-17.48,8.69-3.34,22.57-7.24,37.27-8.87,14.7-1.64,41.27-4.59,41.27-4.59,0,0-12.46,7.32-16.91,8.94s-37.5,3.95-56.56,10.33c-62.65,20.99-64.41,26.18-84.23,22.66-7.06-1.25-21.44-7.32-21.44-7.32Z"/>
          <path class="cls-1" d="M439.55,137.92c.02-.18-.16-4.53-2.22-6.7,1.62,2.97,1.54,6.03,1.44,6.58-7.88-1.26-26.44-7.12-37.3-12.19,4.28,13.83,17.09,22.15,20.48,23.31,3.95-1.61,12.99-7.27,17.15-10.72,0,0-13.41,6.23-17.26,7.13-1.95-1.34-11.66-7.51-15.92-15.72,7.92,4.19,25.43,10.5,33.63,8.3Z"/>
          <path class="cls-1" d="M444.93,134.93c1.47-.78,9.78-12.26,13.9-25.06,1.76,9.62-1.33,19.26-3.11,23.76-3.74,1.04-5.8,.51-10.46,1.2,2.67,.89,5.47,1.5,12.01,.36,2.62-3.31,7.5-20.15,1.48-32.14-2.72,8.2-8.79,21.23-13.5,31.2-.55-.51-1.7-.65-3.17-5.04,.7,3.64,2.25,5.37,2.85,5.72Z"/>
        </g>
        <g>
          <g>
            <path class="cls-1" d="M1173.39,431.06c9.64,28.01-5.24,58.53-33.25,68.17-28.01,9.64-28.28,1.33-70.35,2.91,30.83-10.15,43.34,1.03,68.7-7.7,25.36-8.73,38.84-36.37,30.11-61.74-8.73-25.36-36.37-38.84-61.74-30.11-10.26,3.53-17.91,5.58-64.97,33.78-22.24,13.32-67.44,27.87-108.17,24.49-15.99-1.33-31.28-5.41-44.23-13.42,69.58,8.75,94.16,3.85,127.51-7.63,23.28-8.02,57.18-31.31,88.23-42,28.01-9.64,58.53,5.24,68.17,33.25Z"/>
            <path class="cls-1" d="M974.48,520.74s23.72-3.07,41.03-7.77c35.46-12.58,43.95-25.04,77.97-32.66,14.47-3.08,40.61-8.66,40.61-8.66,0,0-11.67,8.52-15.94,10.57-4.27,2.05-35.57,5.69-55.26,15.88-33.58,17.71-46.28,29.34-66.36,27.8-7.15-.55-22.06-5.16-22.06-5.16Z"/>
            <path class="cls-1" d="M914.84,477.83c39.49,.23,77.83-1.03,121.29-18.71,16.27-6.62,30.78-16.48,34.69-19.52,4.95-3.85,16.82-13.22,24.13-17.13,19.56-5.5,27.72-4.06,27.72-4.06,0,0-19.05,9.79-31.97,17.59-12.92,7.79-19.39,15.13-39.37,24.55-40.34,19.01-92.92,30.63-92.92,30.63,0,0-36.27-8.99-43.56-13.35Z"/>
          </g>
          <g>
            <path class="cls-1" d="M894.36,535.65c4.74-4.35,11.77-9.28,17.32-12.79l-3.9,8.54c-2.43,1.58-6.96,4.24-9.81,6.72l-2.27,4.82,8.84-5.11c-.95,1.45-1.67,3.25-2.56,4.79-2.9,1.72-6.67,3.67-8.37,4.8l-2.54,5.37,11.98-6.22-1.85,4.2c-8.29,4.99-15.26,9.85-19.75,14.48,3.03-8.58,7.49-18.59,12.92-29.59Z"/>
            <path class="cls-1" d="M938.06,513.92c-3-5.31-15.05,4.81-15.05,4.81-3.91,8.02-7.5,16.65-10.76,25.92l5.45-2.84c1.07-2.76,2.54-6.7,4.24-11.34,4.12,2.39,7.81,4.22,10.14,4.27,1.7-.75,3.07-1.38,4.38-2-2.49-.72-5.16-1.93-7.86-3.22,0,0,12.45-10.29,9.45-15.59Zm-10.39,11.44c-1.32,.91-2.69,1.25-4.37,1.38,0,0,2.07-4.29,2.94-5.15s4.84-3.5,6.18-2.88c1.34,.62-3.43,5.74-4.75,6.65Z"/>
            <path class="cls-1" d="M965.1,498.65c-.97,1.64-1.96,3.67-3.11,6.31-1.95,.82-3.81,1.69-5.62,2.61h0c-.46,.71-2.5,10.78-2.78,17.54-1.21,.52-2.52,1.09-3.9,1.69-.39-5.63,1.02-13.53,1.93-16.59,0,0,0,0-.01,0-2.46,1.49-4.86,3.12-7.27,4.95,.68-1.93,1.41-4.95,2.26-6.23,7.87-6.47,14.53-8.69,18.5-10.29Z"/>
            <path class="cls-1" d="M967.86,519.12c4.65-1.91,9.51-3.87,14.66-5.89,1.87-3.97,3.24-6,3.55-6.84-6.49,2.93-9.48,3.98-11.99,5.16,1.61-7.45,3.26-13.93,6.4-19.23-1.27,.64-3.31,1.95-6.94,4.65-1.77,5.22-3.81,13.3-5.68,22.15Z"/>
            <path class="cls-1" d="M992.29,509.43c.13-4.18,3.76-18.25,5.62-20.15l5.87-5.43c-2.43,7.07-5.52,14.71-7.17,23.94-1.45,.55-2.89,1.1-4.32,1.65Z"/>
            <path class="cls-1" d="M823.67,590.31l1.76-19.9c16.95-35.56,34.4-60.29,52.34-74.73-9.13,20.99-16.4,45.58-22.21,72.98,6.25-9.48,18.89-31.05,22.75-36.12,3.86-5.07,11.06-13.18,11.06-13.18-2.56,6.45-4.98,13.2-8.54,18.96-13.49,20.45-25.86,42.3-35.73,64.6-3.49-12.87,2.07-37.83,13.59-70.78-10.11,9.59-21.86,29.4-35.03,58.18Z"/>
          </g>
        </g>
        <g>
          <g>
            <path class="cls-1" d="M173.39,431.06c9.64,28.01-5.24,58.53-33.25,68.17-28.01,9.64-28.28,1.33-70.35,2.91,30.83-10.15,43.34,1.03,68.7-7.7,25.36-8.73,38.84-36.37,30.11-61.74-8.73-25.36-36.37-38.84-61.74-30.11-10.26,3.53-17.91,5.58-64.97,33.78-22.24,13.32-67.44,27.87-108.17,24.49-15.99-1.33-31.28-5.41-44.23-13.42,69.58,8.75,94.16,3.85,127.51-7.63,23.28-8.02,57.18-31.31,88.23-42,28.01-9.64,58.53,5.24,68.17,33.25Z"/>
            <path class="cls-1" d="M56.77,471.52c11.96-6.93,20.14-10.86,27.6-13.87,5.77-.71,11.5-.44,17.06,.14-5.26,4.17-6.33,4.86-12.47,8.71-8.67,2.94-18.5,4.39-32.18,5.02Z"/>
            <path class="cls-1" d="M-25.52,520.74s23.72-3.07,41.03-7.77c35.46-12.58,43.95-25.04,77.97-32.66,14.47-3.08,40.61-8.66,40.61-8.66,0,0-11.67,8.52-15.94,10.57-4.27,2.05-35.57,5.69-55.26,15.88-33.58,17.71-46.28,29.34-66.36,27.8-7.15-.55-22.06-5.16-22.06-5.16Z"/>
            <path class="cls-1" d="M139.12,452.32c.02-.18-.16-4.53-2.22-6.7,1.62,2.97,1.54,6.03,1.44,6.58-7.88-1.26-26.44-7.12-37.3-12.19,4.28,13.83,17.09,22.15,20.48,23.31,3.95-1.61,12.99-7.27,17.15-10.72,0,0-13.41,6.23-17.26,7.13-1.95-1.34-11.66-7.51-15.92-15.72,7.92,4.19,25.43,10.5,33.63,8.3Z"/>
            <path class="cls-1" d="M-85.16,477.83c39.49,.23,77.83-1.03,121.29-18.71,16.27-6.62,30.78-16.48,34.69-19.52,4.95-3.85,16.82-13.22,24.13-17.13,19.56-5.5,27.72-4.06,27.72-4.06,0,0-19.05,9.79-31.97,17.59-12.92,7.79-19.39,15.13-39.37,24.55-40.34,19.01-92.92,30.63-92.92,30.63,0,0-36.27-8.99-43.56-13.35Z"/>
            <path class="cls-1" d="M144.5,449.33c1.47-.78,9.78-12.26,13.9-25.06,1.76,9.62-1.33,19.26-3.11,23.76-3.74,1.04-5.8,.51-10.46,1.2,2.67,.89,5.47,1.5,12.01,.36,2.62-3.31,7.5-20.15,1.48-32.14-2.72,8.2-8.79,21.23-13.5,31.2-.55-.51-1.7-.65-3.17-5.04,.7,3.64,2.25,5.37,2.85,5.72Z"/>
          </g>
          <g>
            <path class="cls-1" d="M-7.71,509.43c.13-4.18,3.76-18.25,5.62-20.15l5.87-5.43c-2.43,7.07-5.52,14.71-7.17,23.94-1.45,.55-2.89,1.1-4.32,1.65Z"/>
            <path class="cls-1" d="M6.93,503.92c1.32-7.01,3.84-14.41,7.65-22.13,2.06,3.39,3.94,5.86,5.65,8.27,0,0,3.29-6.96,4.95-9.54,1.65-1.75,3.67-3.3,5.89-4.73-3.33,7.31-6.73,15.09-8.96,22.61-2.63-2.15-5.01-4.31-6.96-6.76-1.38,3.34-2.31,7.19-3.23,10.47-1.62,.59-3.29,1.2-4.99,1.82Z"/>
            <path class="cls-1" d="M29.21,495.87l9.09-20.81c6.03-4.16,13.34-6.72,17.96-8.66-3.01,2.69-5.08,4.7-7.75,7.32-2.84,1.29-4.68,2.14-6.79,3.62l-2.04,4.76c3.3-1.77,5.33-2.87,9.5-4.64l-3.14,4.43c-2.61,1.16-5.38,2.54-7.68,3.87l-1.92,4.28s5.57-2.05,6.55-2.7,4.83-3.98,4.83-3.98c-.93,1.68-2.77,4.5-5.22,8.08-3.44,1.09-8.05,2.62-13.4,4.42Z"/>
          </g>
        </g>
        <g>
          <path class="cls-1" d="M440.47,501.28c6.19-5.67,15.37-12.12,22.61-16.7l-5.1,11.15c-3.17,2.07-9.08,5.53-12.81,8.77l-2.97,6.3,11.54-6.68c-1.24,1.89-2.18,4.25-3.34,6.25-3.78,2.24-8.71,4.79-10.92,6.26l-3.32,7.02,15.64-8.12-2.42,5.48c-10.82,6.51-19.92,12.86-25.78,18.9,3.95-11.2,9.77-24.27,16.86-38.63Z"/>
          <path class="cls-1" d="M497.51,472.92c-3.92-6.93-19.65,6.28-19.65,6.28-5.1,10.47-9.79,21.73-14.04,33.83l7.12-3.71c1.4-3.6,3.32-8.75,5.53-14.8,5.38,3.12,10.19,5.51,13.23,5.57,2.22-.98,4-1.81,5.72-2.61-3.25-.94-6.73-2.52-10.26-4.21,0,0,16.25-13.43,12.34-20.36Zm-13.56,14.93c-1.72,1.18-3.51,1.63-5.7,1.8,0,0,2.7-5.6,3.84-6.73s6.31-4.57,8.06-3.75c1.75,.82-4.48,7.5-6.2,8.68Z"/>
          <path class="cls-1" d="M532.8,452.99c-1.26,2.15-2.56,4.79-4.05,8.24-2.54,1.07-4.97,2.2-7.33,3.41h0c-.6,.93-3.26,14.07-3.63,22.9-1.58,.68-3.3,1.42-5.09,2.21-.5-7.35,1.34-17.66,2.52-21.66,0,0,0,0-.02,.01-3.21,1.94-6.34,4.07-9.49,6.46,.88-2.51,1.84-6.47,2.95-8.14,10.27-8.45,18.97-11.34,24.14-13.43Z"/>
          <path class="cls-1" d="M536.41,479.7c6.07-2.5,12.42-5.05,19.14-7.69,2.44-5.18,4.22-7.83,4.64-8.93-8.47,3.82-12.38,5.2-15.65,6.74,2.11-9.72,4.25-18.18,8.35-25.1-1.66,.83-4.32,2.54-9.06,6.07-2.31,6.82-4.98,17.36-7.42,28.92Z"/>
          <path class="cls-1" d="M568.29,467.06c.17-5.46,4.91-23.83,7.33-26.31l7.67-7.09c-3.18,9.22-7.2,19.21-9.36,31.25-1.89,.72-3.77,1.43-5.64,2.15Z"/>
          <path class="cls-1" d="M587.4,459.87c1.73-9.15,5.01-18.82,9.98-28.88,2.69,4.42,5.14,7.65,7.38,10.79,0,0,4.29-9.08,6.47-12.45,2.16-2.28,4.79-4.3,7.69-6.18-4.35,9.54-8.78,19.7-11.7,29.51-3.44-2.8-6.54-5.63-9.09-8.83-1.8,4.35-3.02,9.39-4.21,13.67-2.12,.77-4.29,1.56-6.51,2.37Z"/>
          <path class="cls-1" d="M616.49,449.37l11.87-27.16c7.87-5.43,17.41-8.78,23.45-11.3-3.93,3.51-6.63,6.14-10.12,9.56-3.71,1.69-6.11,2.79-8.87,4.73l-2.66,6.21c4.3-2.31,6.95-3.75,12.4-6.05l-4.1,5.78c-3.41,1.51-7.02,3.32-10.02,5.06l-2.5,5.58s7.27-2.67,8.55-3.52,6.31-5.2,6.31-5.2c-1.21,2.19-3.61,5.87-6.82,10.55-4.5,1.43-10.51,3.42-17.5,5.77Z"/>
          <path class="cls-1" d="M348.19,572.64l2.3-25.97c22.12-46.42,44.91-78.7,68.33-97.55-11.92,27.4-21.41,59.5-29,95.26,8.16-12.38,24.66-40.54,29.7-47.15,5.04-6.62,14.44-17.21,14.44-17.21-3.34,8.41-6.5,17.23-11.14,24.75-17.61,26.7-33.76,55.21-46.64,84.33-4.55-16.8,2.7-49.39,17.74-92.4-13.2,12.52-28.53,38.38-45.73,75.94Z"/>
        </g>
      </g>
    </g>
  </g>
</svg>